HIERARCHY
ROOT Hips
{
	OFFSET 0.000000 87.230942 0.000000
	CHANNELS 6 Xposition Yposition Zposition Xrotation Yrotation Zrotation
	JOINT Pelvis
	{
		OFFSET 0.000000 0.000000 0.000000
		CHANNELS 3 Xrotation Yrotation Zrotation
		JOINT LeftUpLeg
		{
			OFFSET 12.017000 -9.376404 -2.439400
			CHANNELS 3 Xrotation Yrotation Zrotation
			JOINT LeftLeg
			{
				OFFSET -0.007312 -32.846973 2.110600
				CHANNELS 3 Xrotation Yrotation Zrotation
				JOINT LeftFoot
				{
					OFFSET 0.007312 -32.065170 -0.570400
					CHANNELS 3 Xrotation Yrotation Zrotation
					JOINT LeftToeBase
					{
						OFFSET 0.728300 -11.045900 13.180700
						CHANNELS 3 Xrotation Yrotation Zrotation
						End Site
						{
							OFFSET 0.000000 17.212589 0.000000
						}
					}
				}
				JOINT LeftPantLeg
				{
					OFFSET 0.002788 -16.709013 -3.143600
					CHANNELS 3 Xrotation Yrotation Zrotation
					End Site
					{
						OFFSET -0.605125 24.528742 0.000000
					}
				}
			}
			JOINT Left_Butt
			{
				OFFSET -6.630234 1.326584 -3.183700
				CHANNELS 3 Xrotation Yrotation Zrotation
				End Site
				{
					OFFSET -0.498041 20.188049 0.000000
				}
			}
		}
		JOINT RightUpLeg
		{
			OFFSET -11.717000 -9.376404 -2.439400
			CHANNELS 3 Xrotation Yrotation Zrotation
			JOINT RightLeg
			{
				OFFSET -0.003241 -32.846912 2.110600
				CHANNELS 3 Xrotation Yrotation Zrotation
				JOINT RightFoot
				{
					OFFSET 0.003241 -32.065136 -0.570500
					CHANNELS 3 Xrotation Yrotation Zrotation
					JOINT RightToeBase
					{
						OFFSET -0.728300 -11.045901 13.180700
						CHANNELS 3 Xrotation Yrotation Zrotation
						End Site
						{
							OFFSET 0.000000 17.212593 0.000000
						}
					}
				}
				JOINT RightPantLeg
				{
					OFFSET 0.008142 -16.708982 -3.143700
					CHANNELS 3 Xrotation Yrotation Zrotation
					End Site
					{
						OFFSET 0.605088 24.528715 0.000000
					}
				}
			}
			JOINT Right_Butt
			{
				OFFSET 6.630732 1.326584 -3.183700
				CHANNELS 3 Xrotation Yrotation Zrotation
				End Site
				{
					OFFSET 0.498015 20.188240 0.000000
				}
			}
		}
	}
	JOINT Spine
	{
		OFFSET -0.062400 7.848404 3.918300
		CHANNELS 3 Xrotation Yrotation Zrotation
		JOINT Spine1
		{
			OFFSET -0.072800 11.422302 0.713400
			CHANNELS 3 Xrotation Yrotation Zrotation
			JOINT Spine2
			{
				OFFSET -0.083200 13.054001 -1.931600
				CHANNELS 3 Xrotation Yrotation Zrotation
				JOINT Neck
				{
					OFFSET -0.092200 14.121796 -5.138800
					CHANNELS 3 Xrotation Yrotation Zrotation
					JOINT Head
					{
						OFFSET 0.000200 10.447403 -0.842000
						CHANNELS 3 Xrotation Yrotation Zrotation
						JOINT Visor
						{
							OFFSET 0.457100 25.671204 16.550400
							CHANNELS 3 Xrotation Yrotation Zrotation
							End Site
							{
								OFFSET 0.000000 26.061493 0.000000
							}
						}
						JOINT HairMidA
						{
							OFFSET 0.459400 31.585403 8.437400
							CHANNELS 3 Xrotation Yrotation Zrotation
							End Site
							{
								OFFSET 0.000000 26.061493 0.000000
							}
						}
						JOINT HairMidB
						{
							OFFSET 0.464000 33.309204 -8.389700
							CHANNELS 3 Xrotation Yrotation Zrotation
							End Site
							{
								OFFSET 0.000000 26.061493 0.000000
							}
						}
						JOINT HairMidC
						{
							OFFSET 0.466600 27.991196 -17.375099
							CHANNELS 3 Xrotation Yrotation Zrotation
							End Site
							{
								OFFSET 0.000000 26.061493 0.000000
							}
						}
						JOINT HairMidD
						{
							OFFSET 0.467700 17.888092 -21.169500
							CHANNELS 3 Xrotation Yrotation Zrotation
							End Site
							{
								OFFSET 0.000000 26.061493 0.000000
							}
						}
						JOINT HairMidE
						{
							OFFSET 5.325700 3.514603 -14.369699
							CHANNELS 3 Xrotation Yrotation Zrotation
							End Site
							{
								OFFSET 0.000000 26.061493 0.000000
							}
						}
						JOINT HairMidF
						{
							OFFSET -4.394100 3.514603 -14.372400
							CHANNELS 3 Xrotation Yrotation Zrotation
							End Site
							{
								OFFSET 0.000000 26.061493 0.000000
							}
						}
						JOINT HairLeftA
						{
							OFFSET 15.319900 25.746506 2.623300
							CHANNELS 3 Xrotation Yrotation Zrotation
							End Site
							{
								OFFSET 0.000000 26.061493 0.000000
							}
						}
						JOINT HairLeftB
						{
							OFFSET 12.619500 29.289398 -8.731499
							CHANNELS 3 Xrotation Yrotation Zrotation
							End Site
							{
								OFFSET 0.000000 26.061493 0.000000
							}
						}
						JOINT HairLeftC
						{
							OFFSET 15.714800 15.959900 2.909800
							CHANNELS 3 Xrotation Yrotation Zrotation
							End Site
							{
								OFFSET 0.000000 26.061493 0.000000
							}
						}
						JOINT HairLeftD
						{
							OFFSET 16.101700 18.437408 -7.553200
							CHANNELS 3 Xrotation Yrotation Zrotation
							End Site
							{
								OFFSET 0.000000 26.061493 0.000000
							}
						}
						JOINT HairLeftE
						{
							OFFSET 9.731900 17.915009 -18.316799
							CHANNELS 3 Xrotation Yrotation Zrotation
							End Site
							{
								OFFSET 0.000000 26.061493 0.000000
							}
						}
						JOINT HairLeftF
						{
							OFFSET 11.204300 4.953598 -9.668100
							CHANNELS 3 Xrotation Yrotation Zrotation
							End Site
							{
								OFFSET 0.000000 26.061493 0.000000
							}
						}
						JOINT HairRightA
						{
							OFFSET -14.397900 25.746307 2.615100
							CHANNELS 3 Xrotation Yrotation Zrotation
							End Site
							{
								OFFSET 0.000000 26.061493 0.000000
							}
						}
						JOINT HairRightB
						{
							OFFSET -11.691200 29.289200 -8.738199
							CHANNELS 3 Xrotation Yrotation Zrotation
							End Site
							{
								OFFSET 0.000000 26.061493 0.000000
							}
						}
						JOINT HairRightC
						{
							OFFSET -14.792900 15.959702 2.901400
							CHANNELS 3 Xrotation Yrotation Zrotation
							End Site
							{
								OFFSET 0.000000 26.061493 0.000000
							}
						}
						JOINT HairRightD
						{
							OFFSET -15.174000 18.437195 -7.561900
							CHANNELS 3 Xrotation Yrotation Zrotation
							End Site
							{
								OFFSET 0.000000 26.061493 0.000000
							}
						}
						JOINT HairRightE
						{
							OFFSET -8.798200 17.914902 -18.322001
							CHANNELS 3 Xrotation Yrotation Zrotation
							End Site
							{
								OFFSET 0.000000 26.061493 0.000000
							}
						}
						JOINT HairRightF
						{
							OFFSET -10.275200 4.953506 -9.674099
							CHANNELS 3 Xrotation Yrotation Zrotation
							End Site
							{
								OFFSET 0.000000 26.061493 0.000000
							}
						}
					}
				}
				JOINT LeftShoulder
				{
					OFFSET 5.133500 7.341202 -1.867600
					CHANNELS 3 Xrotation Yrotation Zrotation
					JOINT LeftArm
					{
						OFFSET 8.072663 0.936867 -2.176600
						CHANNELS 3 Xrotation Yrotation Zrotation
						JOINT LeftForeArm
						{
							OFFSET 31.271999 0.000000 0.000000
							CHANNELS 3 Xrotation Yrotation Zrotation
							JOINT LeftHand
							{
								OFFSET 31.771030 0.000000 0.000000
								CHANNELS 3 Xrotation Yrotation Zrotation
								JOINT LeftHandThumb1
								{
									OFFSET 2.886520 -2.557846 4.416640
									CHANNELS 3 Xrotation Yrotation Zrotation
									JOINT LeftHandThumb2
									{
										OFFSET 2.371025 -1.368912 1.368911
										CHANNELS 3 Xrotation Yrotation Zrotation
										JOINT LeftHandThumb3
										{
											OFFSET 2.243378 -1.295212 1.295213
											CHANNELS 3 Xrotation Yrotation Zrotation
											End Site
											{
												OFFSET -0.332611 2.876945 0.020015
											}
										}
									}
								}
								JOINT LeftHandIndex1
								{
									OFFSET 8.568985 -0.641945 3.119977
									CHANNELS 3 Xrotation Yrotation Zrotation
									JOINT LeftHandIndex2
									{
										OFFSET 3.348503 0.000000 0.000000
										CHANNELS 3 Xrotation Yrotation Zrotation
										JOINT LeftHandIndex3
										{
											OFFSET 3.314552 0.000000 0.000000
											CHANNELS 3 Xrotation Yrotation Zrotation
											End Site
											{
												OFFSET -1.032898 3.075485 0.678796
											}
										}
									}
								}
								JOINT LeftHandMiddle1
								{
									OFFSET 8.124603 0.000000 0.000000
									CHANNELS 3 Xrotation Yrotation Zrotation
									JOINT LeftHandMiddle2
									{
										OFFSET 4.166275 0.000000 0.000000
										CHANNELS 3 Xrotation Yrotation Zrotation
										JOINT LeftHandMiddle3
										{
											OFFSET 3.018135 0.000000 0.000000
											CHANNELS 3 Xrotation Yrotation Zrotation
											End Site
											{
												OFFSET -1.032700 2.767982 0.617226
											}
										}
									}
								}
								JOINT LeftHandRing1
								{
									OFFSET 8.571686 -0.031357 -2.884048
									CHANNELS 3 Xrotation Yrotation Zrotation
									JOINT LeftHandRing2
									{
										OFFSET 3.671181 0.000000 0.000000
										CHANNELS 3 Xrotation Yrotation Zrotation
										JOINT LeftHandRing3
										{
											OFFSET 2.728851 0.000000 0.000000
											CHANNELS 3 Xrotation Yrotation Zrotation
											End Site
											{
												OFFSET -0.815796 2.539223 0.577389
											}
										}
									}
								}
								JOINT LeftHandPinky1
								{
									OFFSET 7.854515 -0.675232 -5.213020
									CHANNELS 3 Xrotation Yrotation Zrotation
									JOINT LeftHandPinky2
									{
										OFFSET 3.068596 0.000000 0.000000
										CHANNELS 3 Xrotation Yrotation Zrotation
										JOINT LeftHandPinky3
										{
											OFFSET 2.396042 0.000000 0.000000
											CHANNELS 3 Xrotation Yrotation Zrotation
											End Site
											{
												OFFSET -0.524597 2.267998 0.567429
											}
										}
									}
								}
							}
							JOINT LeftSleeve
							{
								OFFSET 19.684509 -0.200119 0.476146
								CHANNELS 3 Xrotation Yrotation Zrotation
								End Site
								{
									OFFSET -0.031017 25.731133 -0.002868
								}
							}
						}
					}
				}
				JOINT RightShoulder
				{
					OFFSET -4.395900 7.341202 -1.870200
					CHANNELS 3 Xrotation Yrotation Zrotation
					JOINT RightArm
					{
						OFFSET -8.071453 0.936867 -2.181100
						CHANNELS 3 Xrotation Yrotation Zrotation
						JOINT RightForeArm
						{
							OFFSET -31.272011 0.000000 0.000000
							CHANNELS 3 Xrotation Yrotation Zrotation
							JOINT RightHand
							{
								OFFSET -31.771019 0.000000 0.000000
								CHANNELS 3 Xrotation Yrotation Zrotation
								JOINT RightHandThumb1
								{
									OFFSET -2.886520 -2.557808 4.416626
									CHANNELS 3 Xrotation Yrotation Zrotation
									JOINT RightHandThumb2
									{
										OFFSET -2.371056 -1.368927 1.368928
										CHANNELS 3 Xrotation Yrotation Zrotation
										JOINT RightHandThumb3
										{
											OFFSET -2.243362 -1.295204 1.295206
											CHANNELS 3 Xrotation Yrotation Zrotation
											End Site
											{
												OFFSET 0.332642 2.876938 0.020047
											}
										}
									}
								}
								JOINT RightHandIndex1
								{
									OFFSET -8.568993 -0.641953 3.120017
									CHANNELS 3 Xrotation Yrotation Zrotation
									JOINT RightHandIndex2
									{
										OFFSET -3.348518 0.000000 0.000000
										CHANNELS 3 Xrotation Yrotation Zrotation
										JOINT RightHandIndex3
										{
											OFFSET -3.314552 0.000000 0.000000
											CHANNELS 3 Xrotation Yrotation Zrotation
											End Site
											{
												OFFSET 1.032898 3.075478 0.678804
											}
										}
									}
								}
								JOINT RightHandMiddle1
								{
									OFFSET -8.124588 0.000000 0.000000
									CHANNELS 3 Xrotation Yrotation Zrotation
									JOINT RightHandMiddle2
									{
										OFFSET -4.166275 0.000000 0.000000
										CHANNELS 3 Xrotation Yrotation Zrotation
										JOINT RightHandMiddle3
										{
											OFFSET -3.018097 0.000000 0.000000
											CHANNELS 3 Xrotation Yrotation Zrotation
											End Site
											{
												OFFSET 1.032700 2.767937 0.617197
											}
										}
									}
								}
								JOINT RightHandRing1
								{
									OFFSET -8.571747 -0.031349 -2.884061
									CHANNELS 3 Xrotation Yrotation Zrotation
									JOINT RightHandRing2
									{
										OFFSET -3.671204 0.000000 0.000000
										CHANNELS 3 Xrotation Yrotation Zrotation
										JOINT RightHandRing3
										{
											OFFSET -2.728874 0.000000 0.000000
											CHANNELS 3 Xrotation Yrotation Zrotation
											End Site
											{
												OFFSET 0.815804 2.539261 0.577413
											}
										}
									}
								}
								JOINT RightHandPinky1
								{
									OFFSET -7.854561 -0.675247 -5.212970
									CHANNELS 3 Xrotation Yrotation Zrotation
									JOINT RightHandPinky2
									{
										OFFSET -3.068550 0.000000 0.000000
										CHANNELS 3 Xrotation Yrotation Zrotation
										JOINT RightHandPinky3
										{
											OFFSET -2.395981 0.000000 0.000000
											CHANNELS 3 Xrotation Yrotation Zrotation
											End Site
											{
												OFFSET 0.524605 2.267952 0.567413
											}
										}
									}
								}
							}
							JOINT RightSleeve
							{
								OFFSET -19.684753 -0.200165 0.476065
								CHANNELS 3 Xrotation Yrotation Zrotation
								End Site
								{
									OFFSET 0.031342 25.731255 -0.002917
								}
							}
						}
					}
				}
				JOINT Hood
				{
					OFFSET 0.369700 14.447800 -5.317800
					CHANNELS 3 Xrotation Yrotation Zrotation
					JOINT Hood1
					{
						OFFSET 0.001700 -5.553802 -5.895100
						CHANNELS 3 Xrotation Yrotation Zrotation
						JOINT Hood2
						{
							OFFSET -0.000200 -8.380501 0.763600
							CHANNELS 3 Xrotation Yrotation Zrotation
							End Site
							{
								OFFSET 0.000000 8.415215 0.000000
							}
						}
					}
				}
				JOINT Left_Breast
				{
					OFFSET 5.682500 3.120102 3.188800
					CHANNELS 3 Xrotation Yrotation Zrotation
					End Site
					{
						OFFSET 0.000000 10.528564 0.000000
					}
				}
				JOINT Right_Breast
				{
					OFFSET -4.947600 3.120102 3.185900
					CHANNELS 3 Xrotation Yrotation Zrotation
					End Site
					{
						OFFSET 0.000000 10.528564 0.000000
					}
				}
				JOINT Whistle
				{
					OFFSET 0.368200 11.471298 0.095400
					CHANNELS 3 Xrotation Yrotation Zrotation
					JOINT Whistle1
					{
						OFFSET -0.002000 -6.349899 7.479800
						CHANNELS 3 Xrotation Yrotation Zrotation
						JOINT Whistle2
						{
							OFFSET -0.001300 -8.217598 4.717600
							CHANNELS 3 Xrotation Yrotation Zrotation
							End Site
							{
								OFFSET 0.000000 9.475479 0.000000
							}
						}
					}
				}
			}
		}
		JOINT Belly
		{
			OFFSET 0.212400 1.593002 3.163700
			CHANNELS 3 Xrotation Yrotation Zrotation
			End Site
			{
				OFFSET 0.000000 7.496635 0.000000
			}
		}
	}
	JOINT FitGrandmaFacialAnim_Joint
	{
		OFFSET 1.150000 -86.211197 -1.220100
		CHANNELS 3 Xrotation Yrotation Zrotation
		End Site
		{
			OFFSET 0.000000 31.666618 0.000000
		}
	}
}
MOTION
Frames: 4
Frame Time: 0.016667
-3.957035 83.249596 9.783727 170.215704 -60.435167 167.399686 -0.000000 0.000001 0.000000 -2.056978 12.570391 17.108704 22.133354 21.606871 2.163923 -12.088652 7.729318 -26.491333 -0.000000 0.000000 0.000000 -0.000002 0.000001 0.000002 0.000000 -0.000000 0.000001 -23.946174 -19.920139 -12.824747 22.751924 -17.594892 1.781081 -4.262527 -0.017612 7.980212 0.000000 -0.000001 -0.000000 0.000000 0.000003 0.000000 0.000000 0.000002 0.000002 10.603595 -1.059558 -0.262470 -2.398479 -2.056336 2.718428 -2.356985 -1.768259 2.869753 -3.888774 19.882600 3.910874 -0.526662 21.441473 -3.837597 0.000000 0.000000 0.000000 0.000000 0.000000 0.000000 0.000000 0.000000 0.000000 0.000000 0.000000 0.000000 0.000000 0.000000 0.000000 0.000000 0.000000 0.000000 0.000000 0.000000 0.000000 0.000000 0.000000 0.000000 0.000000 0.000000 0.000000 0.000000 0.000000 0.000000 0.000000 0.000000 0.000000 0.000000 0.000000 0.000000 0.000000 0.000000 0.000000 0.000000 0.000000 0.000000 0.000000 0.000000 0.000000 0.000000 0.000000 0.000000 0.000000 0.000000 0.000000 0.000000 0.000000 0.000000 0.000000 0.000000 0.000000 0.705974 3.275481 -11.637327 -4.210777 -8.950338 -59.610599 5.910707 -15.225815 -6.974006 -0.347271 0.743010 15.812387 -4.200351 10.157391 11.960005 6.085775 10.556461 -0.157853 0.000000 -0.000001 0.000001 2.131781 -0.392599 -13.293933 -0.004692 0.197231 -18.934965 -0.000000 -0.000000 0.000001 -1.008605 1.345597 -17.617322 0.069225 0.461241 -24.715302 0.000002 0.000001 -0.000001 -2.701875 4.172413 -17.242664 -0.035251 0.237683 -29.248591 0.000001 0.000000 0.000002 -4.558677 4.536639 -26.611571 0.028892 0.178537 -30.761051 0.000001 -0.000003 0.000003 0.000007 -0.000000 0.000001 0.703464 1.524164 16.490407 17.133162 25.354798 44.976236 15.517497 24.279261 -5.951860 -24.526038 1.149776 -17.348501 -0.473546 -9.226566 -6.063034 7.388320 -11.608386 1.218086 -0.000001 0.000002 -0.000002 2.309460 -3.333383 8.546099 0.013946 -0.262630 18.590069 0.000001 0.000000 0.000005 -1.980194 -5.331740 13.722420 0.108071 -0.649741 26.760647 -0.000001 -0.000001 -0.000002 -4.943427 -9.642930 11.063733 -0.035454 -0.347570 32.710923 -0.000001 -0.000001 -0.000001 -6.499157 -10.799792 23.445978 0.059695 -0.257492 34.143276 0.000000 -0.000000 0.000002 -0.000001 -0.000000 -0.000001 0.000000 -0.000000 0.000000 0.000000 -0.000000 0.000000 0.000000 -0.000000 0.000000 0.000000 -0.000000 0.000000 0.000000 -0.000000 0.000000 0.000000 -0.000000 0.000000 0.000000 0.000002 -0.000000 0.000000 0.000002 -0.000000 0.000001 -0.000001 0.000001 -0.000000 0.000001 0.000000 
-3.846397 83.123512 8.540229 170.544332 -58.659693 167.824674 0.000000 -0.000002 -0.000000 -1.772368 12.220980 17.975337 23.023029 22.968340 2.267836 -9.650093 7.754993 -29.062356 0.000000 -0.000000 0.000000 0.000001 -0.000001 -0.000002 0.000000 -0.000001 0.000000 -25.588633 -23.389259 -12.573981 24.057485 -13.584874 1.055093 -4.936153 0.886013 6.857641 -0.000000 0.000002 0.000000 0.000000 -0.000000 -0.000000 -0.000002 0.000001 0.000001 10.497740 -1.160814 -0.299158 -2.304554 -2.290393 3.051408 -2.253755 -1.967700 3.217102 -4.003679 18.093297 2.764204 -1.209539 19.088007 -2.532615 0.000000 0.000000 0.000000 0.000000 0.000000 0.000000 0.000000 0.000000 0.000000 0.000000 0.000000 0.000000 0.000000 0.000000 0.000000 0.000000 0.000000 0.000000 0.000000 0.000000 0.000000 0.000000 0.000000 0.000000 0.000000 0.000000 0.000000 0.000000 0.000000 0.000000 0.000000 0.000000 0.000000 0.000000 0.000000 0.000000 0.000000 0.000000 0.000000 0.000000 0.000000 0.000000 0.000000 0.000000 0.000000 0.000000 0.000000 0.000000 0.000000 0.000000 0.000000 0.000000 0.000000 0.000000 0.000000 0.000000 0.000000 0.768058 3.463244 -12.577565 -3.044085 -9.903339 -59.428301 7.177370 -16.260082 -6.053559 -3.592291 1.052250 15.956461 -4.274170 10.467643 11.892676 5.838996 10.360591 0.041995 -0.000003 0.000003 -0.000001 2.051718 -0.987338 -14.446081 -0.008067 0.184412 -19.251011 0.000002 0.000001 0.000001 -0.876458 0.677741 -18.735048 0.063315 0.418318 -24.711916 0.000000 0.000000 0.000000 -2.394415 3.204074 -18.922872 -0.032564 0.215865 -29.133410 0.000004 0.000001 -0.000001 -4.267614 3.447773 -27.868210 0.025601 0.162033 -30.809829 0.000001 0.000000 0.000001 0.000001 0.000000 0.000001 0.701269 1.355151 15.823431 16.534498 25.640289 45.312711 15.474318 24.341855 -5.985885 -24.226872 1.766158 -17.288064 -0.475925 -9.284833 -6.057593 7.374024 -11.607345 1.199333 0.000002 -0.000001 -0.000001 2.297464 -3.261808 8.600795 0.014276 -0.263320 18.582600 -0.000001 -0.000000 0.000001 -1.979944 -5.246732 13.763551 0.107341 -0.646757 26.717318 0.000000 0.000003 -0.000003 -4.937375 -9.523880 11.140120 -0.035775 -0.348113 32.646935 0.000001 -0.000002 0.000001 -6.512572 -10.659433 23.476289 0.059908 -0.258255 34.082883 -0.000001 0.000001 0.000000 -0.000000 0.000000 -0.000000 -0.000000 -0.000001 0.000001 -0.000000 -0.000001 0.000001 -0.000000 -0.000001 0.000001 -0.000000 -0.000001 0.000001 -0.000000 -0.000001 0.000001 -0.000000 -0.000001 0.000001 -0.000001 -0.000001 0.000001 -0.000001 -0.000001 0.000001 0.000002 0.000003 0.000000 0.000000 -0.000002 -0.000000 
-3.724074 83.010300 7.315219 171.006108 -56.999824 168.321693 0.000000 0.000001 -0.000000 -1.767285 12.305168 19.030790 24.299344 23.819154 2.329651 -7.271997 7.485020 -31.280426 0.000000 -0.000000 -0.000000 0.000003 0.000000 0.000000 0.000000 -0.000001 0.000000 -26.624001 -25.594642 -12.065211 25.358672 -10.669697 0.430625 -5.601751 1.559303 5.976849 -0.000000 0.000000 -0.000000 -0.000000 -0.000001 0.000001 -0.000002 0.000003 0.000001 10.600206 -1.272574 -0.183650 -2.282224 -2.483311 3.172532 -2.225455 -2.139749 3.353371 -4.312743 16.256598 2.263037 -1.323578 17.025307 -2.023881 0.000000 0.000000 0.000000 0.000000 0.000000 0.000000 0.000000 0.000000 0.000000 0.000000 0.000000 0.000000 0.000000 0.000000 0.000000 0.000000 0.000000 0.000000 0.000000 0.000000 0.000000 0.000000 0.000000 0.000000 0.000000 0.000000 0.000000 0.000000 0.000000 0.000000 0.000000 0.000000 0.000000 0.000000 0.000000 0.000000 0.000000 0.000000 0.000000 0.000000 0.000000 0.000000 0.000000 0.000000 0.000000 0.000000 0.000000 0.000000 0.000000 0.000000 0.000000 0.000000 0.000000 0.000000 0.000000 0.000000 0.000000 0.793941 3.860536 -12.834921 -2.590071 -10.725956 -59.685301 6.796624 -15.986953 -5.978549 -4.516846 0.869638 16.178128 -4.350489 10.787273 11.824447 5.585225 10.158487 0.246092 -0.000001 -0.000001 -0.000002 1.949234 -1.594989 -15.631612 -0.011635 0.171257 -19.576162 -0.000001 -0.000002 0.000002 -0.762991 -0.013270 -19.880391 0.057186 0.374154 -24.708073 -0.000001 0.000000 0.000001 -2.128879 2.191442 -20.636095 -0.029268 0.193471 -29.015569 0.000002 -0.000001 -0.000002 -4.009866 2.316277 -29.144250 0.022199 0.145131 -30.860977 0.000002 0.000000 0.000003 0.000002 0.000000 0.000001 0.708325 1.125614 15.555421 16.276317 26.099165 45.427629 15.667826 24.549513 -6.236627 -23.970025 2.169538 -17.977316 -0.478574 -9.343075 -6.052160 7.359747 -11.606353 1.180567 0.000000 -0.000000 0.000001 2.285635 -3.191668 8.655807 0.014420 -0.263792 18.575596 0.000000 0.000000 0.000001 -1.980062 -5.161925 13.801838 0.106593 -0.643602 26.672599 -0.000000 -0.000001 -0.000002 -4.933563 -9.403495 11.210500 -0.036022 -0.348460 32.579176 -0.000000 0.000000 -0.000000 -6.528594 -10.515629 23.497381 0.059947 -0.258728 34.016094 -0.000002 0.000000 -0.000001 -0.000000 0.000001 0.000001 0.000000 0.000001 0.000000 0.000000 0.000001 0.000000 0.000000 0.000001 0.000000 0.000000 0.000001 0.000000 0.000000 0.000001 0.000000 0.000000 0.000001 -0.000000 -0.000001 0.000003 -0.000000 -0.000001 0.000003 -0.000000 0.000001 0.000000 0.000000 0.000000 0.000001 -0.000000 
-3.568062 82.912743 6.007670 171.984819 -55.186812 169.138051 0.000000 0.000002 0.000000 -1.567139 12.933896 20.227894 25.604979 24.492133 2.382683 -5.149183 6.993789 -32.977229 0.000000 0.000000 -0.000000 -0.000001 0.000001 0.000003 0.000000 0.000001 0.000001 -26.665240 -25.604974 -10.926213 26.718175 -9.252601 0.192663 -6.086860 1.714145 5.524139 0.000000 0.000003 0.000000 0.000000 -0.000001 0.000001 0.000000 0.000002 -0.000000 11.004692 -1.311606 0.436390 -2.311409 -2.458908 2.656141 -2.266523 -2.142660 2.841961 -4.723529 14.069400 3.187258 -1.044573 15.252410 -2.299041 0.000000 -0.000000 0.000000 0.000000 -0.000000 0.000000 0.000000 -0.000000 0.000000 0.000000 -0.000000 0.000000 0.000000 -0.000000 0.000000 0.000000 -0.000000 0.000000 0.000000 -0.000000 0.000000 0.000000 -0.000000 0.000000 0.000000 -0.000000 0.000000 0.000000 -0.000000 0.000000 0.000000 -0.000000 0.000000 0.000000 -0.000000 0.000000 0.000000 -0.000000 0.000000 0.000000 -0.000000 0.000000 0.000000 -0.000000 0.000000 0.000000 -0.000000 0.000000 0.000000 -0.000000 0.000000 0.000000 -0.000000 0.000000 0.000000 -0.000000 0.000000 0.698517 3.486597 -11.418148 -2.788102 -10.705261 -61.013588 6.324334 -14.736751 -5.900939 -4.856889 0.224938 16.321960 -4.428125 11.111387 11.756503 5.328287 9.952998 0.451398 0.000001 -0.000002 -0.000001 1.824252 -2.206773 -16.833172 -0.015528 0.157987 -19.905603 0.000002 -0.000001 0.000002 -0.671704 -0.717649 -21.035731 0.051040 0.329372 -24.704168 -0.000002 0.000002 -0.000001 -1.913177 1.149661 -22.356130 -0.025950 0.170710 -28.896666 0.000001 -0.000001 0.000004 -3.792509 1.158807 -30.419716 0.018543 0.127885 -30.913525 0.000001 -0.000003 -0.000000 0.000003 -0.000002 0.000002 0.748271 0.713199 16.348353 16.070860 26.382601 45.353535 15.509601 24.754752 -6.377418 -23.526476 2.543088 -18.509826 -0.481024 -9.401258 -6.046686 7.345460 -11.605466 1.161680 -0.000000 -0.000000 0.000002 2.274409 -3.123223 8.711380 0.014462 -0.263995 18.568820 -0.000001 -0.000000 0.000005 -1.980347 -5.077282 13.837586 0.105883 -0.640501 26.625884 0.000000 -0.000001 -0.000002 -4.930958 -9.281441 11.275147 -0.036161 -0.348586 32.507466 -0.000000 0.000000 -0.000003 -6.546907 -10.368734 23.509614 0.059871 -0.258951 33.943335 -0.000000 0.000000 -0.000002 0.000001 0.000001 -0.000003 0.000001 0.000001 -0.000001 0.000001 0.000001 -0.000001 0.000001 0.000001 -0.000001 0.000001 0.000001 -0.000001 0.000001 0.000001 -0.000001 0.000001 0.000001 -0.000000 0.000000 -0.000001 0.000000 0.000000 -0.000001 0.000000 -0.000000 0.000000 0.000001 0.000000 0.000002 0.000000 
